<?xml version="1.0" encoding="utf-8"?>
<!-- Generator: Adobe Illustrator 26.4.1, SVG Export Plug-In . SVG Version: 6.00 Build 0)  -->
<svg version="1.1" id="Camada_1" xmlns="http://www.w3.org/2000/svg" xmlns:xlink="http://www.w3.org/1999/xlink" x="0px" y="0px"
	 viewBox="0 0 1080 1080" style="enable-background:new 0 0 1080 1080;" xml:space="preserve">
<style type="text/css">
	.st0{fill:#FFFFFF;}
	.st1{fill:url(#SVGID_1_);}
	.st2{fill:none;}
	.st3{fill:url(#SVGID_00000028311164933549613880000015588352864090783106_);}
	.st4{fill:url(#SVGID_00000042726203144796086850000005256670935836831391_);}
	.st5{fill:url(#SVGID_00000179608148841077116420000011297386362905319046_);}
	.st6{fill:url(#SVGID_00000152248992423256082730000001315797337360479120_);}
	.st7{fill:url(#SVGID_00000181079740384167679790000009502257524728646537_);}
	.st8{fill:url(#SVGID_00000047055092364005019530000002611150527531904183_);}
	.st9{fill:url(#SVGID_00000115515586690659665610000009075040266380436398_);}
	.st10{fill:url(#SVGID_00000089553958550372663940000017455957832630518968_);}
	.st11{fill:url(#SVGID_00000069387272486604467210000004884866116810879901_);}
	.st12{fill:url(#SVGID_00000086681320672298441120000013459592061468573580_);}
	.st13{fill:url(#SVGID_00000072282228006170982130000012119581000917732245_);}
	.st14{fill:url(#SVGID_00000039124496470486132040000005169351626360118952_);}
	.st15{fill:url(#SVGID_00000133513387222373362830000017447760499238780820_);}
	.st16{fill:url(#SVGID_00000176731193889206860690000015639869315664511654_);}
	.st17{fill:url(#SVGID_00000179643801622772716830000005096724012642084269_);}
	.st18{fill:url(#SVGID_00000104701755246982721080000006712590842382126750_);}
	.st19{fill:#999999;}
	.st20{fill:#CCCCCC;}
	.st21{fill:url(#SVGID_00000116198849472893214330000008256498616366465448_);}
	.st22{fill:url(#SVGID_00000003103958404803552880000013715550558424483754_);}
	.st23{fill:url(#SVGID_00000064316272410019101610000010974174724839336623_);}
	.st24{fill:url(#SVGID_00000057870254797507884110000000726758202861464231_);}
	.st25{fill:url(#SVGID_00000046316475131972112040000007170797437368703637_);}
	.st26{fill:url(#SVGID_00000111191840900222313540000010000432278636905106_);}
	.st27{fill:url(#SVGID_00000180328628911608339160000004944292345014820260_);}
	.st28{fill:url(#SVGID_00000094608634880838505160000017522108802459138691_);}
	.st29{fill:url(#SVGID_00000097467034696822736560000004682451248587274659_);}
	.st30{fill:url(#SVGID_00000142148989976475636580000014945500602717403062_);}
	.st31{fill:url(#SVGID_00000158713925278100043660000004738085252495088261_);}
	.st32{fill:url(#SVGID_00000062178155539174326960000004721070610977112230_);}
	.st33{fill:url(#SVGID_00000072282413562797532300000000564863145699655584_);}
</style>
<g>
	<path class="st0" d="M845.97,341.9"/>
	<linearGradient id="SVGID_1_" gradientUnits="userSpaceOnUse" x1="293.9555" y1="597.6718" x2="540.0085" y2="597.6718">
		<stop  offset="0" style="stop-color:#4D4D4D"/>
		<stop  offset="1" style="stop-color:#808080"/>
	</linearGradient>
	<polyline class="st1" points="540.01,501.78 293.96,386.44 293.96,386.16 293.96,693.84 540.01,809.18 	"/>
	<path class="st2" d="M501.96,236.19"/>
	<path class="st2" d="M748.01,351.54"/>
	<path class="st2" d="M293.96,693.84"/>
	
		<linearGradient id="SVGID_00000121991131396178838070000010963462234939096960_" gradientUnits="userSpaceOnUse" x1="597.1259" y1="579.6446" x2="681.0766" y2="579.6446">
		<stop  offset="0" style="stop-color:#4D4D4D"/>
		<stop  offset="1" style="stop-color:#808080"/>
	</linearGradient>
	<polygon style="fill:url(#SVGID_00000121991131396178838070000010963462234939096960_);" points="681.08,625.02 597.13,585.4 
		597.13,540 609.4,534.27 681.08,567.87 	"/>
	
		<linearGradient id="SVGID_00000116215157482233942650000016285032032398897815_" gradientUnits="userSpaceOnUse" x1="609.4025" y1="526.3914" x2="786.0545" y2="526.3914">
		<stop  offset="0" style="stop-color:#999999"/>
		<stop  offset="1" style="stop-color:#E6E6E6"/>
	</linearGradient>
	<polygon style="fill:url(#SVGID_00000116215157482233942650000016285032032398897815_);" points="786.05,518.13 715.18,484.91 
		609.4,534.27 681.08,567.87 	"/>
	
		<linearGradient id="SVGID_00000092438626431035855280000018075238150783662753_" gradientUnits="userSpaceOnUse" x1="681.0766" y1="624.6616" x2="736.3987" y2="624.6616">
		<stop  offset="0" style="stop-color:#4D4D4D"/>
		<stop  offset="1" style="stop-color:#808080"/>
	</linearGradient>
	<polygon style="fill:url(#SVGID_00000092438626431035855280000018075238150783662753_);" points="681.08,625.02 736.4,598.69 
		736.4,650.64 	"/>
	
		<linearGradient id="SVGID_00000099627214641761616120000001920409908998125208_" gradientUnits="userSpaceOnUse" x1="540.0085" y1="597.8136" x2="786.0545" y2="597.8136">
		<stop  offset="0" style="stop-color:#999999"/>
		<stop  offset="1" style="stop-color:#E6E6E6"/>
	</linearGradient>
	<polyline style="fill:url(#SVGID_00000099627214641761616120000001920409908998125208_);" points="540.01,809.18 540.01,501.78 
		786.05,386.44 786.05,451.84 597.13,540 597.13,715.94 736.4,650.64 736.4,598.69 681.08,625.02 681.08,568.1 786.05,518.13 
		786.05,693.84 540.01,809.18 540.01,501.78 	"/>
	
		<linearGradient id="SVGID_00000005982221593648199090000001111572634829125002_" gradientUnits="userSpaceOnUse" x1="293.9555" y1="386.3003" x2="786.0545" y2="386.3003">
		<stop  offset="0" style="stop-color:#999999"/>
		<stop  offset="1" style="stop-color:#E6E6E6"/>
	</linearGradient>
	<polygon style="fill:url(#SVGID_00000005982221593648199090000001111572634829125002_);" points="786.05,386.44 540.01,270.82 
		293.96,386.16 540.01,501.78 	"/>
	
		<linearGradient id="SVGID_00000052820176516421221660000009000058082967607440_" gradientUnits="userSpaceOnUse" x1="597.1259" y1="650.6717" x2="736.3987" y2="650.6717">
		<stop  offset="0" style="stop-color:#333333"/>
		<stop  offset="1" style="stop-color:#4D4D4D"/>
	</linearGradient>
	<polygon style="fill:url(#SVGID_00000052820176516421221660000009000058082967607440_);" points="597.13,715.94 736.4,650.64 
		597.13,585.4 	"/>
	
		<linearGradient id="SVGID_00000093139664628164611620000012187937361475564425_" gradientUnits="userSpaceOnUse" x1="193.2143" y1="247.9214" x2="886.7856" y2="247.9214">
		<stop  offset="0" style="stop-color:#999999"/>
		<stop  offset="1" style="stop-color:#E6E6E6"/>
	</linearGradient>
	<polygon style="fill:url(#SVGID_00000093139664628164611620000012187937361475564425_);" points="540,160.61 193.21,323.18 
		212.5,335.23 540,181.71 867.51,335.23 886.79,323.18 	"/>
	
		<linearGradient id="SVGID_00000014625019730056523860000012207240241724334991_" gradientUnits="userSpaceOnUse" x1="193.2143" y1="621.2835" x2="540.0049" y2="621.2835">
		<stop  offset="0" style="stop-color:#4D4D4D"/>
		<stop  offset="1" style="stop-color:#808080"/>
	</linearGradient>
	<polygon style="fill:url(#SVGID_00000014625019730056523860000012207240241724334991_);" points="540,898.3 212.5,744.77 
		212.5,335.23 193.21,323.18 193.21,756.82 540,919.39 	"/>
	
		<linearGradient id="SVGID_00000017487464972019698190000001237940318943525274_" gradientUnits="userSpaceOnUse" x1="540.0048" y1="621.2835" x2="886.7857" y2="621.2835">
		<stop  offset="0" style="stop-color:#999999"/>
		<stop  offset="1" style="stop-color:#E6E6E6"/>
	</linearGradient>
	<polygon style="fill:url(#SVGID_00000017487464972019698190000001237940318943525274_);" points="886.79,756.83 540.01,919.39 
		540,898.3 867.51,744.77 867.51,335.23 886.79,323.18 	"/>
	
		<linearGradient id="SVGID_00000096740008230148884820000005678938405874855847_" gradientUnits="userSpaceOnUse" x1="212.4971" y1="463.2382" x2="540.0094" y2="463.2382">
		<stop  offset="0" style="stop-color:#999999"/>
		<stop  offset="1" style="stop-color:#E6E6E6"/>
	</linearGradient>
	<polygon style="fill:url(#SVGID_00000096740008230148884820000005678938405874855847_);" points="540.01,205.26 234.04,348.7 
		234.04,731.3 212.5,744.77 212.5,335.23 540,181.71 	"/>
	
		<linearGradient id="SVGID_00000001629057693538326570000000610617495304631218_" gradientUnits="userSpaceOnUse" x1="540.0047" y1="463.2391" x2="867.5079" y2="463.2391">
		<stop  offset="0" style="stop-color:#999999"/>
		<stop  offset="1" style="stop-color:#E6E6E6"/>
	</linearGradient>
	<polygon style="fill:url(#SVGID_00000001629057693538326570000000610617495304631218_);" points="540.01,205.26 845.97,348.7 
		845.97,731.31 867.51,744.77 867.51,335.23 540,181.71 	"/>
	
		<linearGradient id="SVGID_00000003083900497978252140000008836280554493288120_" gradientUnits="userSpaceOnUse" x1="212.4971" y1="814.8005" x2="867.5079" y2="814.8005">
		<stop  offset="0" style="stop-color:#999999"/>
		<stop  offset="1" style="stop-color:#E6E6E6"/>
	</linearGradient>
	<polygon style="fill:url(#SVGID_00000003083900497978252140000008836280554493288120_);" points="234.04,731.3 540.01,874.74 
		845.97,731.31 867.51,744.77 540,898.3 212.5,744.77 	"/>
</g>
<g>
	<g>
		<g>
			
				<linearGradient id="SVGID_00000135687448904243403910000016183636410595828415_" gradientUnits="userSpaceOnUse" x1="234.037" y1="649.6813" x2="540.0094" y2="649.6813">
				<stop  offset="0" style="stop-color:#999999"/>
				<stop  offset="1" style="stop-color:#E6E6E6"/>
			</linearGradient>
			<polyline style="fill:url(#SVGID_00000135687448904243403910000016183636410595828415_);" points="540.01,568.06 234.04,711.49 
				234.04,731.3 540,588 540.01,568.06 			"/>
			
				<linearGradient id="SVGID_00000023259161584375953670000017635568248583361688_" gradientUnits="userSpaceOnUse" x1="234.037" y1="665.5984" x2="540.0094" y2="665.5984">
				<stop  offset="0" style="stop-color:#4D4D4D"/>
				<stop  offset="1" style="stop-color:#808080"/>
			</linearGradient>
			<polygon style="fill:url(#SVGID_00000023259161584375953670000017635568248583361688_);" points="540.01,611.66 259.41,743.2 
				234.04,731.3 540,588 			"/>
		</g>
		<g>
			
				<linearGradient id="SVGID_00000083063949687570475360000005292532012151076520_" gradientUnits="userSpaceOnUse" x1="540" y1="665.6" x2="845.973" y2="665.6">
				<stop  offset="0" style="stop-color:#4D4D4D"/>
				<stop  offset="1" style="stop-color:#808080"/>
			</linearGradient>
			<polygon style="fill:url(#SVGID_00000083063949687570475360000005292532012151076520_);" points="540,588 845.97,731.31 
				820.6,743.2 540.01,611.66 			"/>
			
				<linearGradient id="SVGID_00000122701741904951925700000009648525294078303635_" gradientUnits="userSpaceOnUse" x1="540" y1="649.683" x2="845.973" y2="649.683">
				<stop  offset="0" style="stop-color:#999999"/>
				<stop  offset="1" style="stop-color:#E6E6E6"/>
			</linearGradient>
			<polygon style="fill:url(#SVGID_00000122701741904951925700000009648525294078303635_);" points="845.97,711.5 540.01,568.06 
				540,588 845.97,731.31 			"/>
		</g>
		<g>
			<polygon class="st19" points="521.07,214.14 521.07,576.94 540.01,568.06 540.01,205.26 			"/>
			<polygon class="st20" points="559.1,214.14 559.1,576.94 540.01,568.06 540.01,205.26 			"/>
		</g>
		
			<linearGradient id="SVGID_00000087379062527784309940000017793657719363927950_" gradientUnits="userSpaceOnUse" x1="193.2143" y1="247.9214" x2="886.7856" y2="247.9214">
			<stop  offset="0" style="stop-color:#999999"/>
			<stop  offset="1" style="stop-color:#E6E6E6"/>
		</linearGradient>
		<polygon style="fill:url(#SVGID_00000087379062527784309940000017793657719363927950_);" points="540,160.61 193.21,323.18 
			212.5,335.23 540,181.71 867.51,335.23 886.79,323.18 		"/>
		
			<linearGradient id="SVGID_00000046317368084828892900000018165391348706148014_" gradientUnits="userSpaceOnUse" x1="193.2143" y1="621.2835" x2="540.0049" y2="621.2835">
			<stop  offset="0" style="stop-color:#4D4D4D"/>
			<stop  offset="1" style="stop-color:#808080"/>
		</linearGradient>
		<polygon style="fill:url(#SVGID_00000046317368084828892900000018165391348706148014_);" points="540,898.3 212.5,744.77 
			212.5,335.23 193.21,323.18 193.21,756.82 540,919.39 		"/>
		
			<linearGradient id="SVGID_00000084508270032008080690000008756340869615436207_" gradientUnits="userSpaceOnUse" x1="540.0048" y1="621.2835" x2="886.7857" y2="621.2835">
			<stop  offset="0" style="stop-color:#999999"/>
			<stop  offset="1" style="stop-color:#E6E6E6"/>
		</linearGradient>
		<polygon style="fill:url(#SVGID_00000084508270032008080690000008756340869615436207_);" points="886.79,756.83 540.01,919.39 
			540,898.3 867.51,744.77 867.51,335.23 886.79,323.18 		"/>
		
			<linearGradient id="SVGID_00000167391877040749529530000008471737711205792917_" gradientUnits="userSpaceOnUse" x1="212.4971" y1="463.2382" x2="540.0094" y2="463.2382">
			<stop  offset="0" style="stop-color:#999999"/>
			<stop  offset="1" style="stop-color:#E6E6E6"/>
		</linearGradient>
		<polygon style="fill:url(#SVGID_00000167391877040749529530000008471737711205792917_);" points="540.01,205.26 234.04,348.7 
			234.04,731.3 212.5,744.77 212.5,335.23 540,181.71 		"/>
		
			<linearGradient id="SVGID_00000118376559589371849750000010672062852562301071_" gradientUnits="userSpaceOnUse" x1="540.0047" y1="463.2391" x2="867.5079" y2="463.2391">
			<stop  offset="0" style="stop-color:#E6E6E6"/>
			<stop  offset="1" style="stop-color:#999999"/>
		</linearGradient>
		<polygon style="fill:url(#SVGID_00000118376559589371849750000010672062852562301071_);" points="540.01,205.26 845.97,348.7 
			845.97,731.31 867.51,744.77 867.51,335.23 540,181.71 		"/>
		
			<linearGradient id="SVGID_00000127731479008875826030000003147031805111449484_" gradientUnits="userSpaceOnUse" x1="212.4971" y1="814.8005" x2="867.5079" y2="814.8005">
			<stop  offset="0" style="stop-color:#999999"/>
			<stop  offset="1" style="stop-color:#E6E6E6"/>
		</linearGradient>
		<polygon style="fill:url(#SVGID_00000127731479008875826030000003147031805111449484_);" points="234.04,731.3 540.01,874.74 
			845.97,731.31 867.51,744.77 540,898.3 212.5,744.77 		"/>
	</g>
	<g>
		
			<linearGradient id="SVGID_00000129901430923313656780000010754975485280116124_" gradientUnits="userSpaceOnUse" x1="293.9555" y1="597.6718" x2="540.0085" y2="597.6718">
			<stop  offset="0" style="stop-color:#4D4D4D"/>
			<stop  offset="1" style="stop-color:#808080"/>
		</linearGradient>
		<polyline style="fill:url(#SVGID_00000129901430923313656780000010754975485280116124_);" points="540.01,501.78 293.96,386.44 
			293.96,386.16 293.96,693.84 540.01,809.18 		"/>
		<path class="st2" d="M748.01,351.54"/>
		<path class="st2" d="M293.96,693.84"/>
		
			<linearGradient id="SVGID_00000138531488516537717190000015110267223171264406_" gradientUnits="userSpaceOnUse" x1="597.1259" y1="579.6446" x2="681.0766" y2="579.6446">
			<stop  offset="0" style="stop-color:#4D4D4D"/>
			<stop  offset="1" style="stop-color:#808080"/>
		</linearGradient>
		<polygon style="fill:url(#SVGID_00000138531488516537717190000015110267223171264406_);" points="681.08,625.02 597.13,585.4 
			597.13,540 609.4,534.27 681.08,567.87 		"/>
		
			<linearGradient id="SVGID_00000018227608344831263680000003268746965642691988_" gradientUnits="userSpaceOnUse" x1="609.4025" y1="526.3914" x2="786.0545" y2="526.3914">
			<stop  offset="0" style="stop-color:#999999"/>
			<stop  offset="1" style="stop-color:#E6E6E6"/>
		</linearGradient>
		<polygon style="fill:url(#SVGID_00000018227608344831263680000003268746965642691988_);" points="786.05,518.13 715.18,484.91 
			609.4,534.27 681.08,567.87 		"/>
		
			<linearGradient id="SVGID_00000098910730877006262530000016648485018928077697_" gradientUnits="userSpaceOnUse" x1="681.0766" y1="624.6616" x2="736.3987" y2="624.6616">
			<stop  offset="0" style="stop-color:#4D4D4D"/>
			<stop  offset="1" style="stop-color:#808080"/>
		</linearGradient>
		<polygon style="fill:url(#SVGID_00000098910730877006262530000016648485018928077697_);" points="681.08,625.02 736.4,598.69 
			736.4,650.64 		"/>
		
			<linearGradient id="SVGID_00000132790439345973860950000002139043456431420084_" gradientUnits="userSpaceOnUse" x1="540.0085" y1="597.8136" x2="786.0545" y2="597.8136">
			<stop  offset="0" style="stop-color:#999999"/>
			<stop  offset="1" style="stop-color:#E6E6E6"/>
		</linearGradient>
		<polyline style="fill:url(#SVGID_00000132790439345973860950000002139043456431420084_);" points="540.01,809.18 540.01,501.78 
			786.05,386.44 786.05,451.84 597.13,540 597.13,715.94 736.4,650.64 736.4,598.69 681.08,625.02 681.08,568.1 786.05,518.13 
			786.05,693.84 540.01,809.18 540.01,501.78 		"/>
		
			<linearGradient id="SVGID_00000168836338193025463360000010275755364811354259_" gradientUnits="userSpaceOnUse" x1="293.9555" y1="386.3003" x2="786.0545" y2="386.3003">
			<stop  offset="0" style="stop-color:#999999"/>
			<stop  offset="1" style="stop-color:#E6E6E6"/>
		</linearGradient>
		<polygon style="fill:url(#SVGID_00000168836338193025463360000010275755364811354259_);" points="786.05,386.44 540.01,270.82 
			293.96,386.16 540.01,501.78 		"/>
		
			<linearGradient id="SVGID_00000148627743481314610560000013011611138301909936_" gradientUnits="userSpaceOnUse" x1="597.1259" y1="650.6717" x2="736.3987" y2="650.6717">
			<stop  offset="0" style="stop-color:#333333"/>
			<stop  offset="1" style="stop-color:#4D4D4D"/>
		</linearGradient>
		<polygon style="fill:url(#SVGID_00000148627743481314610560000013011611138301909936_);" points="597.13,715.94 736.4,650.64 
			597.13,585.4 		"/>
	</g>
</g>
</svg>
